<svg width="1078.4461425781249px" height="336.8px" xmlns="http://www.w3.org/2000/svg" viewBox="-289.22307128906243 -93.4 1078.4461425781249 336.8" style="background: rgba(0, 0, 0, 0);" preserveAspectRatio="xMidYMid"><defs><linearGradient id="editing-outline-gradient" x1="-0.41354545764260087" x2="1.4135454576426008" y1="0.09326335692419985" y2="0.9067366430758002"><stop offset="0" stop-color="#fa7060"></stop><stop offset="1" stop-color="#ee4208"></stop></linearGradient><filter id="editing-outline" x="-100%" y="-100%" width="300%" height="300%"><feMorphology in="SourceGraphic" operator="dilate" radius="1" result="outline"></feMorphology><feComposite operator="out" in="outline" in2="SourceAlpha"></feComposite></filter></defs><g filter="url(#editing-outline)"><g transform="translate(-139.16587221622467, 144.6999969482422)"><path d="M44.20 0L1.60 0L24.40-121.60L26.60-132L69.40-132L44.20 0ZM125.40-11.80L125.40-11.80L125.40-11.80Q120 4 99.20 4L99.20 4L99.20 4Q83.80 4 73.20-14.40L73.20-14.40L73.20-14.40Q62.40-32.80 60.40-62.80L60.40-62.80L60.40-62.80Q82.40-103 97.60-119.60L97.60-119.60L97.60-119.60Q112.20-135.40 127.40-135.40L127.40-135.40L127.40-135.40Q135.60-135.40 141.50-131L141.50-131L141.50-131Q147.40-126.60 148.80-119.60L148.80-119.60L148.80-119.60Q142-116.80 138.80-114.60L138.80-114.60L138.80-114.60Q130.80-108.60 120-95.20L120-95.20L101.80-73.40L101.80-73.40Q97.40-68.20 95.60-65.80L95.60-65.80L95.60-65.80Q98.60-49 107.60-32.40L107.60-32.40L107.60-32.40Q116.20-16.60 125.40-11.80ZM146.20-29.60L146.20-29.60L146.20-29.60Q146.20-37.40 148.20-47.40L148.20-47.40L164.40-132L208.60-132L192.60-46.80L192.60-46.80Q190.80-37.40 190.80-30.50L190.80-30.50L190.80-30.50Q190.80-23.60 193.70-20L193.70-20L193.70-20Q196.60-16.40 202-16.40L202-16.40L202-16.40Q207.40-16.40 210.80-17.80L210.80-17.80L210.80-17.80Q214.20-19.20 217-22.60L217-22.60L217-22.60Q222.40-29.40 225.80-46.80L225.80-46.80L242-132L272.20-132L256.20-47L256.20-47Q250.60-18.60 235.20-7.20L235.20-7.20L235.20-7.20Q220.20 4 190.60 4L190.60 4L190.60 4Q168.40 4 156.60-5.60L156.60-5.60L156.60-5.60Q146.20-14 146.20-29.60ZM293.20 0L270.20 0L306.40-132L348.20-132L357.40-56.60L394.60-132L429.60-132L433.20-33.20L433.20-33.20Q434-13.60 443.60-7.60L443.60-7.60L443.60-7.60Q441.40-3.60 435 0.20L435 0.20L435 0.20Q428.60 4 420.10 4L420.10 4L420.10 4Q411.60 4 406.60 1.60L406.60 1.60L406.60 1.60Q401.60-0.80 398.80-4.80L398.80-4.80L398.80-4.80Q393.80-12 393.80-25.80L393.80-25.80L393.80-87.60L354.40 0L329.60 0L315.60-89.80L293.20 0ZM540 4L540 4L540 4Q514.40 4 512-32.40L512-32.40L477.60-32.40L477.60-32.40Q473.60-23.20 470.80-15.20L470.80-15.20L465.60 0L437.60 0L500.60-132L543.60-132L552-34.80L552-34.80Q554-13.80 562-7.60L562-7.60L562-7.60Q556.20 4 540 4ZM494.80-72.40L483.80-47L511.40-47L509-98.40L509-103.80L494.80-72.40ZM614.60 0L571.80 0L596.20-131.40L596.20-131.40Q616-133.60 644.90-133.60L644.90-133.60L644.90-133.60Q673.80-133.60 687.20-125.20L687.20-125.20L687.20-125.20Q700.60-116.80 700.60-99.90L700.60-99.90L700.60-99.90Q700.60-83 691.90-72.40L691.90-72.40L691.90-72.40Q683.20-61.80 668.20-58.40L668.20-58.40L668.20-58.40Q671.60-41.80 679.40-28.40L679.40-28.40L679.40-28.40Q686.60-15.80 695-11.80L695-11.80L695-11.80Q692-3.40 685.90 0.30L685.90 0.30L685.90 0.30Q679.80 4 671.10 4L671.10 4L671.10 4Q662.40 4 655.60-1.10L655.60-1.10L655.60-1.10Q648.80-6.20 643.40-15.60L643.40-15.60L643.40-15.60Q632-36 630.80-68.20L630.80-68.20L632.20-68.20L632.20-68.20Q647-68.60 654.40-76.30L654.40-76.30L654.40-76.30Q661.80-84 661.80-100.20L661.80-100.20L661.80-100.20Q661.80-120.40 644.80-121.20L644.80-121.20L640.40-121.20L640.40-121.20Q638.60-121.20 637.60-121L637.60-121L614.60 0ZM751.20 0L707.60 0L733.00-132L777.00-132L751.20 0Z" fill="url(#editing-outline-gradient)"></path></g></g><style>text {
  font-size: 64px;
  font-family: Arial Black;
  dominant-baseline: central;
  text-anchor: middle;
}</style></svg>