<svg width="5534.860742187499px" height="336.8px" xmlns="http://www.w3.org/2000/svg" viewBox="-2517.4303710937497 -93.4 5534.860742187499 336.8" style="background: rgba(0, 0, 0, 0);" preserveAspectRatio="xMidYMid"><defs><linearGradient id="editing-outline-gradient" x1="-0.41354545764260087" x2="1.4135454576426008" y1="0.09326335692419985" y2="0.9067366430758002"><stop offset="0" stop-color="#fa7060"></stop><stop offset="1" stop-color="#ee4208"></stop></linearGradient><filter id="editing-outline" x="-100%" y="-100%" width="300%" height="300%"><feMorphology in="SourceGraphic" operator="dilate" radius="1" result="outline"></feMorphology><feComposite operator="out" in="outline" in2="SourceAlpha"></feComposite></filter></defs><g filter="url(#editing-outline)"><g transform="translate(-1777.5628906488419, 144.6999969482422)"><path d="M44.20 0L1.60 0L24.40-121.60L26.60-132L69.40-132L44.20 0ZM125.40-11.80L125.40-11.80L125.40-11.80Q120 4 99.20 4L99.20 4L99.20 4Q83.80 4 73.20-14.40L73.20-14.40L73.20-14.40Q62.40-32.80 60.40-62.80L60.40-62.80L60.40-62.80Q82.40-103 97.60-119.60L97.60-119.60L97.60-119.60Q112.20-135.40 127.40-135.40L127.40-135.40L127.40-135.40Q135.60-135.40 141.50-131L141.50-131L141.50-131Q147.40-126.60 148.80-119.60L148.80-119.60L148.80-119.60Q142-116.80 138.80-114.60L138.80-114.60L138.80-114.60Q130.80-108.60 120-95.20L120-95.20L101.80-73.40L101.80-73.40Q97.40-68.20 95.60-65.80L95.60-65.80L95.60-65.80Q98.60-49 107.60-32.40L107.60-32.40L107.60-32.40Q116.20-16.60 125.40-11.80ZM146.20-29.60L146.20-29.60L146.20-29.60Q146.20-37.40 148.20-47.40L148.20-47.40L164.40-132L208.60-132L192.60-46.80L192.60-46.80Q190.80-37.40 190.80-30.50L190.80-30.50L190.80-30.50Q190.80-23.60 193.70-20L193.70-20L193.70-20Q196.60-16.40 202-16.40L202-16.40L202-16.40Q207.40-16.40 210.80-17.80L210.80-17.80L210.80-17.80Q214.20-19.20 217-22.60L217-22.60L217-22.60Q222.40-29.40 225.80-46.80L225.80-46.80L242-132L272.20-132L256.20-47L256.20-47Q250.60-18.60 235.20-7.20L235.20-7.20L235.20-7.20Q220.20 4 190.60 4L190.60 4L190.60 4Q168.40 4 156.60-5.60L156.60-5.60L156.60-5.60Q146.20-14 146.20-29.60ZM293.20 0L270.20 0L306.40-132L348.20-132L357.40-56.60L394.60-132L429.60-132L433.20-33.20L433.20-33.20Q434-13.60 443.60-7.60L443.60-7.60L443.60-7.60Q441.40-3.60 435 0.20L435 0.20L435 0.20Q428.60 4 420.10 4L420.10 4L420.10 4Q411.60 4 406.60 1.60L406.60 1.60L406.60 1.60Q401.60-0.80 398.80-4.80L398.80-4.80L398.80-4.80Q393.80-12 393.80-25.80L393.80-25.80L393.80-87.60L354.40 0L329.60 0L315.60-89.80L293.20 0ZM540 4L540 4L540 4Q514.40 4 512-32.40L512-32.40L477.60-32.40L477.60-32.40Q473.60-23.20 470.80-15.20L470.80-15.20L465.60 0L437.60 0L500.60-132L543.60-132L552-34.80L552-34.80Q554-13.80 562-7.60L562-7.60L562-7.60Q556.20 4 540 4ZM494.80-72.40L483.80-47L511.40-47L509-98.40L509-103.80L494.80-72.40ZM614.60 0L571.80 0L596.20-131.40L596.20-131.40Q616-133.60 644.90-133.60L644.90-133.60L644.90-133.60Q673.80-133.60 687.20-125.20L687.20-125.20L687.20-125.20Q700.60-116.80 700.60-99.90L700.60-99.90L700.60-99.90Q700.60-83 691.90-72.40L691.90-72.40L691.90-72.40Q683.20-61.80 668.20-58.40L668.20-58.40L668.20-58.40Q671.60-41.80 679.40-28.40L679.40-28.40L679.40-28.40Q686.60-15.80 695-11.80L695-11.80L695-11.80Q692-3.40 685.90 0.30L685.90 0.30L685.90 0.30Q679.80 4 671.10 4L671.10 4L671.10 4Q662.40 4 655.60-1.10L655.60-1.10L655.60-1.10Q648.80-6.20 643.40-15.60L643.40-15.60L643.40-15.60Q632-36 630.80-68.20L630.80-68.20L632.20-68.20L632.20-68.20Q647-68.60 654.40-76.30L654.40-76.30L654.40-76.30Q661.80-84 661.80-100.20L661.80-100.20L661.80-100.20Q661.80-120.40 644.80-121.20L644.80-121.20L640.40-121.20L640.40-121.20Q638.60-121.20 637.60-121L637.60-121L614.60 0ZM751.20 0L707.60 0L733.00-132L777.00-132L751.20 0ZM863.40 0L820.80 0L843.60-121.60L845.80-132L888.60-132L863.40 0ZM944.60-11.80L944.60-11.80L944.60-11.80Q939.20 4 918.40 4L918.40 4L918.40 4Q903.00 4 892.40-14.40L892.40-14.40L892.40-14.40Q881.60-32.80 879.60-62.80L879.60-62.80L879.60-62.80Q901.60-103 916.80-119.60L916.80-119.60L916.80-119.60Q931.40-135.40 946.60-135.40L946.60-135.40L946.60-135.40Q954.80-135.40 960.70-131L960.70-131L960.70-131Q966.60-126.60 968.00-119.60L968.00-119.60L968.00-119.60Q961.20-116.80 958.00-114.60L958.00-114.60L958.00-114.60Q950.00-108.60 939.20-95.20L939.20-95.20L921.00-73.40L921.00-73.40Q916.60-68.20 914.80-65.80L914.80-65.80L914.80-65.80Q917.80-49 926.80-32.40L926.80-32.40L926.80-32.40Q935.40-16.60 944.60-11.80ZM965.40-29.60L965.40-29.60L965.40-29.60Q965.40-37.40 967.40-47.40L967.40-47.40L983.60-132L1027.80-132L1011.80-46.80L1011.80-46.80Q1010.00-37.40 1010.00-30.50L1010.00-30.50L1010.00-30.50Q1010.00-23.60 1012.90-20L1012.90-20L1012.90-20Q1015.80-16.40 1021.20-16.40L1021.20-16.40L1021.20-16.40Q1026.60-16.40 1030.00-17.80L1030.00-17.80L1030.00-17.80Q1033.40-19.20 1036.20-22.60L1036.20-22.60L1036.20-22.60Q1041.60-29.40 1045.00-46.80L1045.00-46.80L1061.20-132L1091.40-132L1075.40-47L1075.40-47Q1069.80-18.60 1054.40-7.20L1054.40-7.20L1054.40-7.20Q1039.40 4 1009.80 4L1009.80 4L1009.80 4Q987.60 4 975.80-5.60L975.80-5.60L975.80-5.60Q965.40-14 965.40-29.60ZM1112.40 0L1089.40 0L1125.60-132L1167.40-132L1176.60-56.60L1213.80-132L1248.80-132L1252.40-33.20L1252.40-33.20Q1253.20-13.60 1262.80-7.60L1262.80-7.60L1262.80-7.60Q1260.60-3.60 1254.20 0.20L1254.20 0.20L1254.20 0.20Q1247.80 4 1239.30 4L1239.30 4L1239.30 4Q1230.80 4 1225.80 1.60L1225.80 1.60L1225.80 1.60Q1220.80-0.80 1218.00-4.80L1218.00-4.80L1218.00-4.80Q1213.00-12 1213.00-25.80L1213.00-25.80L1213.00-87.60L1173.60 0L1148.80 0L1134.80-89.80L1112.40 0ZM1359.20 4L1359.20 4L1359.20 4Q1333.60 4 1331.20-32.40L1331.20-32.40L1296.80-32.40L1296.80-32.40Q1292.80-23.20 1290.00-15.20L1290.00-15.20L1284.80 0L1256.80 0L1319.80-132L1362.80-132L1371.20-34.80L1371.20-34.80Q1373.20-13.80 1381.20-7.60L1381.20-7.60L1381.20-7.60Q1375.40 4 1359.20 4ZM1314.00-72.40L1303.00-47L1330.60-47L1328.20-98.40L1328.20-103.80L1314.00-72.40ZM1433.80 0L1391.00 0L1415.40-131.40L1415.40-131.40Q1435.20-133.60 1464.10-133.60L1464.10-133.60L1464.10-133.60Q1493.00-133.60 1506.40-125.20L1506.40-125.20L1506.40-125.20Q1519.80-116.80 1519.80-99.90L1519.80-99.90L1519.80-99.90Q1519.80-83 1511.10-72.40L1511.10-72.40L1511.10-72.40Q1502.40-61.80 1487.40-58.40L1487.40-58.40L1487.40-58.40Q1490.80-41.80 1498.60-28.40L1498.60-28.40L1498.60-28.40Q1505.80-15.80 1514.20-11.80L1514.20-11.80L1514.20-11.80Q1511.20-3.40 1505.10 0.30L1505.10 0.30L1505.10 0.30Q1499.00 4 1490.30 4L1490.30 4L1490.30 4Q1481.60 4 1474.80-1.10L1474.80-1.10L1474.80-1.10Q1468.00-6.20 1462.60-15.60L1462.60-15.60L1462.60-15.60Q1451.20-36 1450.00-68.20L1450.00-68.20L1451.40-68.20L1451.40-68.20Q1466.20-68.60 1473.60-76.30L1473.60-76.30L1473.60-76.30Q1481.00-84 1481.00-100.20L1481.00-100.20L1481.00-100.20Q1481.00-120.40 1464.00-121.20L1464.00-121.20L1459.60-121.20L1459.60-121.20Q1457.80-121.20 1456.80-121L1456.80-121L1433.80 0ZM1570.40 0L1526.80 0L1552.20-132L1596.20-132L1570.40 0ZM1682.60 0L1640.00 0L1662.80-121.60L1665.00-132L1707.80-132L1682.60 0ZM1763.80-11.80L1763.80-11.80L1763.80-11.80Q1758.40 4 1737.60 4L1737.60 4L1737.60 4Q1722.20 4 1711.60-14.40L1711.60-14.40L1711.60-14.40Q1700.80-32.80 1698.80-62.80L1698.80-62.80L1698.80-62.80Q1720.80-103 1736.00-119.60L1736.00-119.60L1736.00-119.60Q1750.60-135.40 1765.80-135.40L1765.80-135.40L1765.80-135.40Q1774.00-135.40 1779.90-131L1779.90-131L1779.90-131Q1785.80-126.60 1787.20-119.60L1787.20-119.60L1787.20-119.60Q1780.40-116.80 1777.20-114.60L1777.20-114.60L1777.20-114.60Q1769.20-108.60 1758.40-95.20L1758.40-95.20L1740.20-73.40L1740.20-73.40Q1735.80-68.20 1734.00-65.80L1734.00-65.80L1734.00-65.80Q1737.00-49 1746.00-32.40L1746.00-32.40L1746.00-32.40Q1754.60-16.60 1763.80-11.80ZM1784.60-29.60L1784.60-29.60L1784.60-29.60Q1784.60-37.40 1786.60-47.40L1786.60-47.40L1802.80-132L1847.00-132L1831.00-46.80L1831.00-46.80Q1829.20-37.40 1829.20-30.50L1829.20-30.50L1829.20-30.50Q1829.20-23.60 1832.10-20L1832.10-20L1832.10-20Q1835.00-16.40 1840.40-16.40L1840.40-16.40L1840.40-16.40Q1845.80-16.40 1849.20-17.80L1849.20-17.80L1849.20-17.80Q1852.60-19.20 1855.40-22.60L1855.40-22.60L1855.40-22.60Q1860.80-29.40 1864.20-46.80L1864.20-46.80L1880.40-132L1910.60-132L1894.60-47L1894.60-47Q1889.00-18.60 1873.60-7.20L1873.60-7.20L1873.60-7.20Q1858.60 4 1829.00 4L1829.00 4L1829.00 4Q1806.80 4 1795.00-5.60L1795.00-5.60L1795.00-5.60Q1784.60-14 1784.60-29.60ZM1931.60 0L1908.60 0L1944.80-132L1986.60-132L1995.80-56.60L2033.00-132L2068.00-132L2071.60-33.20L2071.60-33.20Q2072.40-13.60 2082.00-7.60L2082.00-7.60L2082.00-7.60Q2079.80-3.60 2073.40 0.20L2073.40 0.20L2073.40 0.20Q2067.00 4 2058.50 4L2058.50 4L2058.50 4Q2050.00 4 2045.00 1.60L2045.00 1.60L2045.00 1.60Q2040.00-0.80 2037.20-4.80L2037.20-4.80L2037.20-4.80Q2032.20-12 2032.20-25.80L2032.20-25.80L2032.20-87.60L1992.80 0L1968.00 0L1954.00-89.80L1931.60 0ZM2178.40 4L2178.40 4L2178.40 4Q2152.80 4 2150.40-32.40L2150.40-32.40L2116.00-32.40L2116.00-32.40Q2112.00-23.20 2109.20-15.20L2109.20-15.20L2104.00 0L2076.00 0L2139.00-132L2182.00-132L2190.40-34.80L2190.40-34.80Q2192.40-13.80 2200.40-7.60L2200.40-7.60L2200.40-7.60Q2194.60 4 2178.40 4ZM2133.20-72.40L2122.20-47L2149.80-47L2147.40-98.40L2147.40-103.80L2133.20-72.40ZM2253.00 0L2210.20 0L2234.60-131.40L2234.60-131.40Q2254.40-133.60 2283.30-133.60L2283.30-133.60L2283.30-133.60Q2312.20-133.60 2325.60-125.20L2325.60-125.20L2325.60-125.20Q2339.00-116.80 2339.00-99.90L2339.00-99.90L2339.00-99.90Q2339.00-83 2330.30-72.40L2330.30-72.40L2330.30-72.40Q2321.60-61.80 2306.60-58.40L2306.60-58.40L2306.60-58.40Q2310.00-41.80 2317.80-28.40L2317.80-28.40L2317.80-28.40Q2325.00-15.80 2333.40-11.80L2333.40-11.80L2333.40-11.80Q2330.40-3.40 2324.30 0.30L2324.30 0.30L2324.30 0.30Q2318.20 4 2309.50 4L2309.50 4L2309.50 4Q2300.80 4 2294.00-1.10L2294.00-1.10L2294.00-1.10Q2287.20-6.20 2281.80-15.60L2281.80-15.60L2281.80-15.60Q2270.40-36 2269.20-68.20L2269.20-68.20L2270.60-68.20L2270.60-68.20Q2285.40-68.60 2292.80-76.30L2292.80-76.30L2292.80-76.30Q2300.20-84 2300.20-100.20L2300.20-100.20L2300.20-100.20Q2300.20-120.40 2283.20-121.20L2283.20-121.20L2278.80-121.20L2278.80-121.20Q2277.00-121.20 2276.00-121L2276.00-121L2253.00 0ZM2389.60 0L2346 0L2371.40-132L2415.40-132L2389.60 0ZM2501.80 0L2459.20 0L2482-121.60L2484.20-132L2527-132L2501.80 0ZM2583-11.80L2583-11.80L2583-11.80Q2577.60 4 2556.80 4L2556.80 4L2556.80 4Q2541.40 4 2530.80-14.40L2530.80-14.40L2530.80-14.40Q2520-32.80 2518-62.80L2518-62.80L2518-62.80Q2540-103 2555.20-119.60L2555.20-119.60L2555.20-119.60Q2569.80-135.40 2585-135.40L2585-135.40L2585-135.40Q2593.20-135.40 2599.10-131L2599.10-131L2599.10-131Q2605-126.60 2606.40-119.60L2606.40-119.60L2606.40-119.60Q2599.60-116.80 2596.40-114.60L2596.40-114.60L2596.40-114.60Q2588.40-108.60 2577.60-95.20L2577.60-95.20L2559.40-73.40L2559.40-73.40Q2555-68.20 2553.20-65.80L2553.20-65.80L2553.20-65.80Q2556.20-49 2565.20-32.40L2565.20-32.40L2565.20-32.40Q2573.80-16.60 2583-11.80ZM2603.80-29.60L2603.80-29.60L2603.80-29.60Q2603.80-37.40 2605.80-47.40L2605.80-47.40L2622-132L2666.20-132L2650.20-46.80L2650.20-46.80Q2648.40-37.40 2648.40-30.50L2648.40-30.50L2648.40-30.50Q2648.40-23.60 2651.30-20L2651.30-20L2651.30-20Q2654.20-16.40 2659.60-16.40L2659.60-16.40L2659.60-16.40Q2665-16.40 2668.40-17.80L2668.40-17.80L2668.40-17.80Q2671.80-19.20 2674.60-22.60L2674.60-22.60L2674.60-22.60Q2680-29.40 2683.40-46.80L2683.40-46.80L2699.60-132L2729.80-132L2713.80-47L2713.80-47Q2708.20-18.60 2692.80-7.20L2692.80-7.20L2692.80-7.20Q2677.80 4 2648.20 4L2648.20 4L2648.20 4Q2626 4 2614.20-5.60L2614.20-5.60L2614.20-5.60Q2603.80-14 2603.80-29.60ZM2750.80 0L2727.80 0L2764-132L2805.80-132L2815-56.60L2852.20-132L2887.20-132L2890.80-33.20L2890.80-33.20Q2891.60-13.60 2901.20-7.60L2901.20-7.60L2901.20-7.60Q2899-3.60 2892.60 0.20L2892.60 0.20L2892.60 0.20Q2886.20 4 2877.70 4L2877.70 4L2877.70 4Q2869.20 4 2864.20 1.60L2864.20 1.60L2864.20 1.60Q2859.20-0.80 2856.40-4.80L2856.40-4.80L2856.40-4.80Q2851.40-12 2851.40-25.80L2851.40-25.80L2851.40-87.60L2812 0L2787.20 0L2773.20-89.80L2750.80 0ZM2997.60 4L2997.60 4L2997.60 4Q2972 4 2969.60-32.40L2969.60-32.40L2935.20-32.40L2935.20-32.40Q2931.20-23.20 2928.40-15.20L2928.40-15.20L2923.20 0L2895.20 0L2958.20-132L3001.20-132L3009.60-34.80L3009.60-34.80Q3011.60-13.80 3019.60-7.60L3019.60-7.60L3019.60-7.60Q3013.80 4 2997.60 4ZM2952.40-72.40L2941.40-47L2969-47L2966.60-98.40L2966.60-103.80L2952.40-72.40ZM3072.20 0L3029.40 0L3053.80-131.40L3053.80-131.40Q3073.60-133.60 3102.50-133.60L3102.50-133.60L3102.50-133.60Q3131.40-133.60 3144.80-125.20L3144.80-125.20L3144.80-125.20Q3158.20-116.80 3158.20-99.90L3158.20-99.90L3158.20-99.90Q3158.20-83 3149.50-72.40L3149.50-72.40L3149.50-72.40Q3140.80-61.80 3125.80-58.40L3125.80-58.40L3125.80-58.40Q3129.20-41.80 3137-28.40L3137-28.40L3137-28.40Q3144.20-15.80 3152.60-11.80L3152.60-11.80L3152.60-11.80Q3149.60-3.40 3143.50 0.30L3143.50 0.30L3143.50 0.30Q3137.40 4 3128.70 4L3128.70 4L3128.70 4Q3120 4 3113.20-1.10L3113.20-1.10L3113.20-1.10Q3106.40-6.20 3101-15.60L3101-15.60L3101-15.60Q3089.60-36 3088.40-68.20L3088.40-68.20L3089.80-68.20L3089.80-68.20Q3104.60-68.60 3112-76.30L3112-76.30L3112-76.30Q3119.40-84 3119.40-100.20L3119.40-100.20L3119.40-100.20Q3119.40-120.40 3102.40-121.20L3102.40-121.20L3098-121.20L3098-121.20Q3096.20-121.20 3095.20-121L3095.20-121L3072.20 0ZM3208.80 0L3165.20 0L3190.60-132L3234.60-132L3208.80 0ZM3321.00 0L3278.40 0L3301.20-121.60L3303.40-132L3346.20-132L3321.00 0ZM3402.20-11.80L3402.20-11.80L3402.20-11.80Q3396.80 4 3376.00 4L3376.00 4L3376.00 4Q3360.60 4 3350.00-14.40L3350.00-14.40L3350.00-14.40Q3339.20-32.80 3337.20-62.80L3337.20-62.80L3337.20-62.80Q3359.20-103 3374.40-119.60L3374.40-119.60L3374.40-119.60Q3389.00-135.40 3404.20-135.40L3404.20-135.40L3404.20-135.40Q3412.40-135.40 3418.30-131L3418.30-131L3418.30-131Q3424.20-126.60 3425.60-119.60L3425.60-119.60L3425.60-119.60Q3418.80-116.80 3415.60-114.60L3415.60-114.60L3415.60-114.60Q3407.60-108.60 3396.80-95.20L3396.80-95.20L3378.60-73.40L3378.60-73.40Q3374.20-68.20 3372.40-65.80L3372.40-65.80L3372.40-65.80Q3375.40-49 3384.40-32.40L3384.40-32.40L3384.40-32.40Q3393.00-16.60 3402.20-11.80ZM3423.00-29.60L3423.00-29.60L3423.00-29.60Q3423.00-37.40 3425.00-47.40L3425.00-47.40L3441.20-132L3485.40-132L3469.40-46.80L3469.40-46.80Q3467.60-37.40 3467.60-30.50L3467.60-30.50L3467.60-30.50Q3467.60-23.60 3470.50-20L3470.50-20L3470.50-20Q3473.40-16.40 3478.80-16.40L3478.80-16.40L3478.80-16.40Q3484.20-16.40 3487.60-17.80L3487.60-17.80L3487.60-17.80Q3491.00-19.20 3493.80-22.60L3493.80-22.60L3493.80-22.60Q3499.20-29.40 3502.60-46.80L3502.60-46.80L3518.80-132L3549.00-132L3533.00-47L3533.00-47Q3527.40-18.60 3512.00-7.20L3512.00-7.20L3512.00-7.20Q3497.00 4 3467.40 4L3467.40 4L3467.40 4Q3445.20 4 3433.40-5.60L3433.40-5.60L3433.40-5.60Q3423.00-14 3423.00-29.60ZM3570 0L3547 0L3583.20-132L3625-132L3634.20-56.60L3671.40-132L3706.40-132L3710-33.20L3710-33.20Q3710.80-13.60 3720.40-7.60L3720.40-7.60L3720.40-7.60Q3718.20-3.60 3711.80 0.20L3711.80 0.20L3711.80 0.20Q3705.40 4 3696.90 4L3696.90 4L3696.90 4Q3688.40 4 3683.40 1.60L3683.40 1.60L3683.40 1.60Q3678.40-0.80 3675.60-4.80L3675.60-4.80L3675.60-4.80Q3670.60-12 3670.60-25.80L3670.60-25.80L3670.60-87.60L3631.20 0L3606.40 0L3592.40-89.80L3570 0ZM3816.80 4L3816.80 4L3816.80 4Q3791.20 4 3788.80-32.40L3788.80-32.40L3754.40-32.40L3754.40-32.40Q3750.40-23.20 3747.60-15.20L3747.60-15.20L3742.40 0L3714.40 0L3777.40-132L3820.40-132L3828.80-34.80L3828.80-34.80Q3830.80-13.80 3838.80-7.60L3838.80-7.60L3838.80-7.60Q3833 4 3816.80 4ZM3771.60-72.40L3760.60-47L3788.20-47L3785.80-98.40L3785.80-103.80L3771.60-72.40ZM3891.40 0L3848.60 0L3873-131.40L3873-131.40Q3892.80-133.60 3921.70-133.60L3921.70-133.60L3921.70-133.60Q3950.60-133.60 3964-125.20L3964-125.20L3964-125.20Q3977.40-116.80 3977.40-99.90L3977.40-99.90L3977.40-99.90Q3977.40-83 3968.70-72.40L3968.70-72.40L3968.70-72.40Q3960-61.80 3945-58.40L3945-58.40L3945-58.40Q3948.40-41.80 3956.20-28.40L3956.20-28.40L3956.20-28.40Q3963.40-15.80 3971.80-11.80L3971.80-11.80L3971.80-11.80Q3968.80-3.40 3962.70 0.30L3962.70 0.30L3962.70 0.30Q3956.60 4 3947.90 4L3947.90 4L3947.90 4Q3939.20 4 3932.40-1.10L3932.40-1.10L3932.40-1.10Q3925.60-6.20 3920.20-15.60L3920.20-15.60L3920.20-15.60Q3908.80-36 3907.60-68.20L3907.60-68.20L3909-68.20L3909-68.20Q3923.80-68.60 3931.20-76.30L3931.20-76.30L3931.20-76.30Q3938.60-84 3938.60-100.20L3938.60-100.20L3938.60-100.20Q3938.60-120.40 3921.60-121.20L3921.60-121.20L3917.20-121.20L3917.20-121.20Q3915.40-121.20 3914.40-121L3914.40-121L3891.40 0ZM4028 0L3984.40 0L4009.80-132L4053.80-132L4028 0Z" fill="url(#editing-outline-gradient)"></path></g></g><style>text {
  font-size: 64px;
  font-family: Arial Black;
  dominant-baseline: central;
  text-anchor: middle;
}</style></svg>