<svg width="3499.94375px" height="336.8px" xmlns="http://www.w3.org/2000/svg" viewBox="-1499.971875 -93.4 3499.94375 336.8" style="background: rgba(0, 0, 0, 0);" preserveAspectRatio="xMidYMid"><defs><linearGradient id="editing-outline-gradient" x1="-0.41354545764260087" x2="1.4135454576426008" y1="0.09326335692419985" y2="0.9067366430758002"><stop offset="0" stop-color="#fa7060"></stop><stop offset="1" stop-color="#ee4208"></stop></linearGradient><filter id="editing-outline" x="-100%" y="-100%" width="300%" height="300%"><feMorphology in="SourceGraphic" operator="dilate" radius="1" result="outline"></feMorphology><feComposite operator="out" in="outline" in2="SourceAlpha"></feComposite></filter></defs><g filter="url(#editing-outline)"><g transform="translate(-1034.9997806549072, 145.1999969482422)"><path d="M19.40-97.40L19.40-97.40L19.40-97.40Q12.60-102.60 12.60-113.70L12.60-113.70L12.60-113.70Q12.60-124.80 19.90-130.60L19.90-130.60L19.90-130.60Q27.20-136.40 39.80-136.40L39.80-136.40L39.80-136.40Q47.80-136.40 66.80-133.60L66.80-133.60L80.40-131.60L80.40-131.60Q87.20-130.80 94.30-130.80L94.30-130.80L94.30-130.80Q101.40-130.80 106.20-133.80L106.20-133.80L106.20-133.80Q113.40-127.40 113.40-118.20L113.40-118.20L113.40-118.20Q113.40-109 105.20-102.40L105.20-102.40L105.20-102.40Q96.80-95.40 86-95.40L86-95.40L86-95.40Q80.80-95.40 72.40-96.80L72.40-96.80L72.40-96.80Q62.60-66 62.60-44.60L62.60-44.60L62.60-44.60Q62.60-23.20 73.40-12L73.40-12L73.40-12Q68.40-3 61 0.50L61 0.50L61 0.50Q53.60 4 42.50 4L42.50 4L42.50 4Q31.40 4 24.50-2.10L24.50-2.10L24.50-2.10Q17.60-8.20 17.60-20.80L17.60-20.80L17.60-20.80Q17.60-35.40 25.60-59.40L25.60-59.40L25.60-59.40Q33.60-83.20 45.60-101.40L45.60-101.40L45.60-101.40Q39.80-102 33.80-102L33.80-102L33.80-102Q21.40-102 19.40-97.40ZM192.40-30.80L192.40-30.80L192.40-30.80Q196.20-26 196.20-18.20L196.20-18.20L196.20-18.20Q196.20-7.40 188.20-1.70L188.20-1.70L188.20-1.70Q180.20 4 167.60 4L167.60 4L167.60 4Q160.40 4 149.40 2.40L149.40 2.40L149.40 2.40Q127.80-1 121.20-1L121.20-1L121.20-1Q114.60-1 112.00-0.70L112.00-0.70L112.00-0.70Q109.40-0.40 105.20 0L105.20 0L129.80-132L216-132L216-132Q216-119.80 210.10-113.40L210.10-113.40L210.10-113.40Q204.20-107 192.60-107L192.60-107L192.60-107Q181-107 169.20-112.40L169.20-112.40L163-77.40L198.60-77.40L198.60-77.40Q198.60-66.80 193.40-60.90L193.40-60.90L193.40-60.90Q188.20-55 179.50-55L179.50-55L179.50-55Q170.80-55 165.40-57L165.40-57L165.40-57Q160-59 159.40-59.60L159.40-59.60L152.20-21.80L152.20-21.80Q157-21.20 166-21.20L166-21.20L166-21.20Q181.40-21.20 192.40-30.80ZM319-41.40L319-41.40L319-41.40Q324.20-37.60 324.20-29.50L324.20-29.50L324.20-29.50Q324.20-21.40 320.70-15.70L320.70-15.70L320.70-15.70Q317.20-10 310.40-5.60L310.40-5.60L310.40-5.60Q295.80 3.80 270.30 3.80L270.30 3.80L270.30 3.80Q244.80 3.80 230.90-9.50L230.90-9.50L230.90-9.50Q217.00-22.80 217.00-46.40L217.00-46.40L217.00-46.40Q217.00-79.80 234.40-105.20L234.40-105.20L234.40-105.20Q247.60-124 271.20-132L271.20-132L271.20-132Q283.40-136 295.40-136L295.40-136L295.40-136Q307.40-136 314.80-134.40L314.80-134.40L314.80-134.40Q322.20-132.80 327.80-129.60L327.80-129.60L327.80-129.60Q340-122.60 340-111.40L340-111.40L340-111.40Q340-101.20 330.40-93.60L330.40-93.60L330.40-93.60Q321.60-86.80 314.40-86.80L314.40-86.80L314.40-86.80Q307.20-86.80 304.20-87.80L304.20-87.80L304.20-87.80Q305-95 305-99.70L305-99.70L305-99.70Q305-104.40 304.80-107.80L304.80-107.80L304.80-107.80Q304.60-111.20 303.60-114.40L303.60-114.40L303.60-114.40Q301.60-121.80 295.50-121.80L295.50-121.80L295.50-121.80Q289.40-121.80 283.30-116.10L283.30-116.10L283.30-116.10Q277.20-110.40 272-100.80L272-100.80L272-100.80Q260.20-79 260.20-53.20L260.20-53.20L260.20-53.20Q260.20-40.80 267.20-33.70L267.20-33.70L267.20-33.70Q274.20-26.60 289.20-26.60L289.20-26.60L289.20-26.60Q300.40-26.60 311-34L311-34L311-34Q315.60-37.20 319-41.40ZM415.40-15L415.40-15L415.40-15Q415.40-29 421.00-57L421.00-57L391.40-57L380.40 0L338.60 0L364.00-132L406.20-132L394.60-73L424.20-73L435.20-132L477.40-132L477.40-132Q474.60-117.20 471-100.60L471-100.60L464.20-68L464.20-68Q456.60-30 456.60-13.40L456.60-13.40L456.60-13.40Q456.60-6.60 458.80-2.80L458.80-2.80L458.80-2.80Q448.80 4 437.10 4L437.10 4L437.10 4Q425.40 4 420.40-1.60L420.40-1.60L420.40-1.60Q415.40-7.20 415.40-15ZM539.40-97.40L539.40-97.40L539.40-97.40Q532.60-102.60 532.60-113.70L532.60-113.70L532.60-113.70Q532.60-124.80 539.90-130.60L539.90-130.60L539.90-130.60Q547.20-136.40 559.80-136.40L559.80-136.40L559.80-136.40Q567.80-136.40 586.80-133.60L586.80-133.60L600.40-131.60L600.40-131.60Q607.20-130.80 614.30-130.80L614.30-130.80L614.30-130.80Q621.40-130.80 626.20-133.80L626.20-133.80L626.20-133.80Q633.40-127.40 633.40-118.20L633.40-118.20L633.40-118.20Q633.40-109 625.20-102.40L625.20-102.40L625.20-102.40Q616.80-95.40 606.00-95.40L606.00-95.40L606.00-95.40Q600.80-95.40 592.40-96.80L592.40-96.80L592.40-96.80Q582.60-66 582.60-44.60L582.60-44.60L582.60-44.60Q582.60-23.20 593.40-12L593.40-12L593.40-12Q588.40-3 581.00 0.50L581.00 0.50L581.00 0.50Q573.60 4 562.50 4L562.50 4L562.50 4Q551.40 4 544.50-2.10L544.50-2.10L544.50-2.10Q537.60-8.20 537.60-20.80L537.60-20.80L537.60-20.80Q537.60-35.40 545.60-59.40L545.60-59.40L545.60-59.40Q553.60-83.20 565.60-101.40L565.60-101.40L565.60-101.40Q559.80-102 553.80-102L553.80-102L553.80-102Q541.40-102 539.40-97.40ZM712.40-30.80L712.40-30.80L712.40-30.80Q716.20-26 716.20-18.20L716.20-18.20L716.20-18.20Q716.20-7.40 708.20-1.70L708.20-1.70L708.20-1.70Q700.20 4 687.60 4L687.60 4L687.60 4Q680.40 4 669.40 2.40L669.40 2.40L669.40 2.40Q647.80-1 641.20-1L641.20-1L641.20-1Q634.60-1 632.00-0.70L632.00-0.70L632.00-0.70Q629.40-0.40 625.20 0L625.20 0L649.80-132L736.00-132L736.00-132Q736.00-119.80 730.10-113.40L730.10-113.40L730.10-113.40Q724.20-107 712.60-107L712.60-107L712.60-107Q701.00-107 689.20-112.40L689.20-112.40L683.00-77.40L718.60-77.40L718.60-77.40Q718.60-66.80 713.40-60.90L713.40-60.90L713.40-60.90Q708.20-55 699.50-55L699.50-55L699.50-55Q690.80-55 685.40-57L685.40-57L685.40-57Q680.00-59 679.40-59.60L679.40-59.60L672.20-21.80L672.20-21.80Q677.00-21.20 686.00-21.20L686.00-21.20L686.00-21.20Q701.40-21.20 712.40-30.80ZM839.00-41.40L839.00-41.40L839.00-41.40Q844.20-37.60 844.20-29.50L844.20-29.50L844.20-29.50Q844.20-21.40 840.70-15.70L840.70-15.70L840.70-15.70Q837.20-10 830.40-5.60L830.40-5.60L830.40-5.60Q815.80 3.80 790.30 3.80L790.30 3.80L790.30 3.80Q764.80 3.80 750.90-9.50L750.90-9.50L750.90-9.50Q737.00-22.80 737.00-46.40L737.00-46.40L737.00-46.40Q737.00-79.80 754.40-105.20L754.40-105.20L754.40-105.20Q767.60-124 791.20-132L791.20-132L791.20-132Q803.40-136 815.40-136L815.40-136L815.40-136Q827.40-136 834.80-134.40L834.80-134.40L834.80-134.40Q842.20-132.80 847.80-129.60L847.80-129.60L847.80-129.60Q860.00-122.60 860.00-111.40L860.00-111.40L860.00-111.40Q860.00-101.20 850.40-93.60L850.40-93.60L850.40-93.60Q841.60-86.80 834.40-86.80L834.40-86.80L834.40-86.80Q827.20-86.80 824.20-87.80L824.20-87.80L824.20-87.80Q825.00-95 825.00-99.70L825.00-99.70L825.00-99.70Q825.00-104.40 824.80-107.80L824.80-107.80L824.80-107.80Q824.60-111.20 823.60-114.40L823.60-114.40L823.60-114.40Q821.60-121.80 815.50-121.80L815.50-121.80L815.50-121.80Q809.40-121.80 803.30-116.10L803.30-116.10L803.30-116.10Q797.20-110.40 792.00-100.80L792.00-100.80L792.00-100.80Q780.20-79 780.20-53.20L780.20-53.20L780.20-53.20Q780.20-40.80 787.20-33.70L787.20-33.70L787.20-33.70Q794.20-26.60 809.20-26.60L809.20-26.60L809.20-26.60Q820.40-26.60 831.00-34L831.00-34L831.00-34Q835.60-37.20 839.00-41.40ZM935.40-15L935.40-15L935.40-15Q935.40-29 941.00-57L941.00-57L911.40-57L900.40 0L858.60 0L884.00-132L926.20-132L914.60-73L944.20-73L955.20-132L997.40-132L997.40-132Q994.60-117.20 991.00-100.60L991.00-100.60L984.20-68L984.20-68Q976.60-30 976.60-13.40L976.60-13.40L976.60-13.40Q976.60-6.60 978.80-2.80L978.80-2.80L978.80-2.80Q968.80 4 957.10 4L957.10 4L957.10 4Q945.40 4 940.40-1.60L940.40-1.60L940.40-1.60Q935.40-7.20 935.40-15ZM1059.40-97.40L1059.40-97.40L1059.40-97.40Q1052.60-102.60 1052.60-113.70L1052.60-113.70L1052.60-113.70Q1052.60-124.80 1059.90-130.60L1059.90-130.60L1059.90-130.60Q1067.20-136.40 1079.80-136.40L1079.80-136.40L1079.80-136.40Q1087.80-136.40 1106.80-133.60L1106.80-133.60L1120.40-131.60L1120.40-131.60Q1127.20-130.80 1134.30-130.80L1134.30-130.80L1134.30-130.80Q1141.40-130.80 1146.20-133.80L1146.20-133.80L1146.20-133.80Q1153.40-127.40 1153.40-118.20L1153.40-118.20L1153.40-118.20Q1153.40-109 1145.20-102.40L1145.20-102.40L1145.20-102.40Q1136.80-95.40 1126.00-95.40L1126.00-95.40L1126.00-95.40Q1120.80-95.40 1112.40-96.80L1112.40-96.80L1112.40-96.80Q1102.60-66 1102.60-44.60L1102.60-44.60L1102.60-44.60Q1102.60-23.20 1113.40-12L1113.40-12L1113.40-12Q1108.40-3 1101.00 0.50L1101.00 0.50L1101.00 0.50Q1093.60 4 1082.50 4L1082.50 4L1082.50 4Q1071.40 4 1064.50-2.10L1064.50-2.10L1064.50-2.10Q1057.60-8.20 1057.60-20.80L1057.60-20.80L1057.60-20.80Q1057.60-35.40 1065.60-59.40L1065.60-59.40L1065.60-59.40Q1073.60-83.20 1085.60-101.40L1085.60-101.40L1085.60-101.40Q1079.80-102 1073.80-102L1073.80-102L1073.80-102Q1061.40-102 1059.40-97.40ZM1232.40-30.80L1232.40-30.80L1232.40-30.80Q1236.20-26 1236.20-18.20L1236.20-18.20L1236.20-18.20Q1236.20-7.40 1228.20-1.70L1228.20-1.70L1228.20-1.70Q1220.20 4 1207.60 4L1207.60 4L1207.60 4Q1200.40 4 1189.40 2.40L1189.40 2.40L1189.40 2.40Q1167.80-1 1161.20-1L1161.20-1L1161.20-1Q1154.60-1 1152.00-0.70L1152.00-0.70L1152.00-0.70Q1149.40-0.40 1145.20 0L1145.20 0L1169.80-132L1256.00-132L1256.00-132Q1256.00-119.80 1250.10-113.40L1250.10-113.40L1250.10-113.40Q1244.20-107 1232.60-107L1232.60-107L1232.60-107Q1221.00-107 1209.20-112.40L1209.20-112.40L1203.00-77.40L1238.60-77.40L1238.60-77.40Q1238.60-66.80 1233.40-60.90L1233.40-60.90L1233.40-60.90Q1228.20-55 1219.50-55L1219.50-55L1219.50-55Q1210.80-55 1205.40-57L1205.40-57L1205.40-57Q1200.00-59 1199.40-59.60L1199.40-59.60L1192.20-21.80L1192.20-21.80Q1197.00-21.20 1206.00-21.20L1206.00-21.20L1206.00-21.20Q1221.40-21.20 1232.40-30.80ZM1359-41.40L1359-41.40L1359-41.40Q1364.20-37.60 1364.20-29.50L1364.20-29.50L1364.20-29.50Q1364.20-21.40 1360.70-15.70L1360.70-15.70L1360.70-15.70Q1357.20-10 1350.40-5.60L1350.40-5.60L1350.40-5.60Q1335.80 3.80 1310.30 3.80L1310.30 3.80L1310.30 3.80Q1284.80 3.80 1270.90-9.50L1270.90-9.50L1270.90-9.50Q1257-22.80 1257-46.40L1257-46.40L1257-46.40Q1257-79.80 1274.40-105.20L1274.40-105.20L1274.40-105.20Q1287.60-124 1311.20-132L1311.20-132L1311.20-132Q1323.40-136 1335.40-136L1335.40-136L1335.40-136Q1347.40-136 1354.80-134.40L1354.80-134.40L1354.80-134.40Q1362.20-132.80 1367.80-129.60L1367.80-129.60L1367.80-129.60Q1380-122.60 1380-111.40L1380-111.40L1380-111.40Q1380-101.20 1370.40-93.60L1370.40-93.60L1370.40-93.60Q1361.60-86.80 1354.40-86.80L1354.40-86.80L1354.40-86.80Q1347.20-86.80 1344.20-87.80L1344.20-87.80L1344.20-87.80Q1345-95 1345-99.70L1345-99.70L1345-99.70Q1345-104.40 1344.80-107.80L1344.80-107.80L1344.80-107.80Q1344.60-111.20 1343.60-114.40L1343.60-114.40L1343.60-114.40Q1341.60-121.80 1335.50-121.80L1335.50-121.80L1335.50-121.80Q1329.40-121.80 1323.30-116.10L1323.30-116.10L1323.30-116.10Q1317.20-110.40 1312-100.80L1312-100.80L1312-100.80Q1300.20-79 1300.20-53.20L1300.20-53.20L1300.20-53.20Q1300.20-40.80 1307.20-33.70L1307.20-33.70L1307.20-33.70Q1314.20-26.60 1329.20-26.60L1329.20-26.60L1329.20-26.60Q1340.40-26.60 1351-34L1351-34L1351-34Q1355.60-37.20 1359-41.40ZM1455.40-15L1455.40-15L1455.40-15Q1455.40-29 1461-57L1461-57L1431.40-57L1420.40 0L1378.60 0L1404-132L1446.20-132L1434.60-73L1464.20-73L1475.20-132L1517.40-132L1517.40-132Q1514.60-117.20 1511-100.60L1511-100.60L1504.20-68L1504.20-68Q1496.60-30 1496.60-13.40L1496.60-13.40L1496.60-13.40Q1496.60-6.60 1498.80-2.80L1498.80-2.80L1498.80-2.80Q1488.80 4 1477.10 4L1477.10 4L1477.10 4Q1465.40 4 1460.40-1.60L1460.40-1.60L1460.40-1.60Q1455.40-7.20 1455.40-15ZM1579.40-97.40L1579.40-97.40L1579.40-97.40Q1572.60-102.60 1572.60-113.70L1572.60-113.70L1572.60-113.70Q1572.60-124.80 1579.90-130.60L1579.90-130.60L1579.90-130.60Q1587.20-136.40 1599.80-136.40L1599.80-136.40L1599.80-136.40Q1607.80-136.40 1626.80-133.60L1626.80-133.60L1640.40-131.60L1640.40-131.60Q1647.20-130.80 1654.30-130.80L1654.30-130.80L1654.30-130.80Q1661.40-130.80 1666.20-133.80L1666.20-133.80L1666.20-133.80Q1673.40-127.40 1673.40-118.20L1673.40-118.20L1673.40-118.20Q1673.40-109 1665.20-102.40L1665.20-102.40L1665.20-102.40Q1656.80-95.40 1646.00-95.40L1646.00-95.40L1646.00-95.40Q1640.80-95.40 1632.40-96.80L1632.40-96.80L1632.40-96.80Q1622.60-66 1622.60-44.60L1622.60-44.60L1622.60-44.60Q1622.60-23.20 1633.40-12L1633.40-12L1633.40-12Q1628.40-3 1621.00 0.50L1621.00 0.50L1621.00 0.50Q1613.60 4 1602.50 4L1602.50 4L1602.50 4Q1591.40 4 1584.50-2.10L1584.50-2.10L1584.50-2.10Q1577.60-8.20 1577.60-20.80L1577.60-20.80L1577.60-20.80Q1577.60-35.40 1585.60-59.40L1585.60-59.40L1585.60-59.40Q1593.60-83.20 1605.60-101.40L1605.60-101.40L1605.60-101.40Q1599.80-102 1593.80-102L1593.80-102L1593.80-102Q1581.40-102 1579.40-97.40ZM1752.40-30.80L1752.40-30.80L1752.40-30.80Q1756.20-26 1756.20-18.20L1756.20-18.20L1756.20-18.20Q1756.20-7.40 1748.20-1.70L1748.20-1.70L1748.20-1.70Q1740.20 4 1727.60 4L1727.60 4L1727.60 4Q1720.40 4 1709.40 2.40L1709.40 2.40L1709.40 2.40Q1687.80-1 1681.20-1L1681.20-1L1681.20-1Q1674.60-1 1672.00-0.70L1672.00-0.70L1672.00-0.70Q1669.40-0.40 1665.20 0L1665.20 0L1689.80-132L1776.00-132L1776.00-132Q1776.00-119.80 1770.10-113.40L1770.10-113.40L1770.10-113.40Q1764.20-107 1752.60-107L1752.60-107L1752.60-107Q1741.00-107 1729.20-112.40L1729.20-112.40L1723.00-77.40L1758.60-77.40L1758.60-77.40Q1758.60-66.80 1753.40-60.90L1753.40-60.90L1753.40-60.90Q1748.20-55 1739.50-55L1739.50-55L1739.50-55Q1730.80-55 1725.40-57L1725.40-57L1725.40-57Q1720.00-59 1719.40-59.60L1719.40-59.60L1712.20-21.80L1712.20-21.80Q1717.00-21.20 1726.00-21.20L1726.00-21.20L1726.00-21.20Q1741.40-21.20 1752.40-30.80ZM1879-41.40L1879-41.40L1879-41.40Q1884.20-37.60 1884.20-29.50L1884.20-29.50L1884.20-29.50Q1884.20-21.40 1880.70-15.70L1880.70-15.70L1880.70-15.70Q1877.20-10 1870.40-5.60L1870.40-5.60L1870.40-5.60Q1855.80 3.80 1830.30 3.80L1830.30 3.80L1830.30 3.80Q1804.80 3.80 1790.90-9.50L1790.90-9.50L1790.90-9.50Q1777-22.80 1777-46.40L1777-46.40L1777-46.40Q1777-79.80 1794.40-105.20L1794.40-105.20L1794.40-105.20Q1807.60-124 1831.20-132L1831.20-132L1831.20-132Q1843.40-136 1855.40-136L1855.40-136L1855.40-136Q1867.40-136 1874.80-134.40L1874.80-134.40L1874.80-134.40Q1882.20-132.80 1887.80-129.60L1887.80-129.60L1887.80-129.60Q1900-122.60 1900-111.40L1900-111.40L1900-111.40Q1900-101.20 1890.40-93.60L1890.40-93.60L1890.40-93.60Q1881.60-86.80 1874.40-86.80L1874.40-86.80L1874.40-86.80Q1867.20-86.80 1864.20-87.80L1864.20-87.80L1864.20-87.80Q1865-95 1865-99.70L1865-99.70L1865-99.70Q1865-104.40 1864.80-107.80L1864.80-107.80L1864.80-107.80Q1864.60-111.20 1863.60-114.40L1863.60-114.40L1863.60-114.40Q1861.60-121.80 1855.50-121.80L1855.50-121.80L1855.50-121.80Q1849.40-121.80 1843.30-116.10L1843.30-116.10L1843.30-116.10Q1837.20-110.40 1832-100.80L1832-100.80L1832-100.80Q1820.20-79 1820.20-53.20L1820.20-53.20L1820.20-53.20Q1820.20-40.80 1827.20-33.70L1827.20-33.70L1827.20-33.70Q1834.20-26.60 1849.20-26.60L1849.20-26.60L1849.20-26.60Q1860.40-26.60 1871-34L1871-34L1871-34Q1875.60-37.20 1879-41.40ZM1975.40-15L1975.40-15L1975.40-15Q1975.40-29 1981-57L1981-57L1951.40-57L1940.40 0L1898.60 0L1924-132L1966.20-132L1954.60-73L1984.20-73L1995.20-132L2037.40-132L2037.40-132Q2034.60-117.20 2031-100.60L2031-100.60L2024.20-68L2024.20-68Q2016.60-30 2016.60-13.40L2016.60-13.40L2016.60-13.40Q2016.60-6.60 2018.80-2.80L2018.80-2.80L2018.80-2.80Q2008.80 4 1997.10 4L1997.10 4L1997.10 4Q1985.40 4 1980.40-1.60L1980.40-1.60L1980.40-1.60Q1975.40-7.20 1975.40-15ZM2099.40-97.40L2099.40-97.40L2099.40-97.40Q2092.60-102.60 2092.60-113.70L2092.60-113.70L2092.60-113.70Q2092.60-124.80 2099.90-130.60L2099.90-130.60L2099.90-130.60Q2107.20-136.40 2119.80-136.40L2119.80-136.40L2119.80-136.40Q2127.80-136.40 2146.80-133.60L2146.80-133.60L2160.40-131.60L2160.40-131.60Q2167.20-130.80 2174.30-130.80L2174.30-130.80L2174.30-130.80Q2181.40-130.80 2186.20-133.80L2186.20-133.80L2186.20-133.80Q2193.40-127.40 2193.40-118.20L2193.40-118.20L2193.40-118.20Q2193.40-109 2185.20-102.40L2185.20-102.40L2185.20-102.40Q2176.80-95.40 2166-95.40L2166-95.40L2166-95.40Q2160.80-95.40 2152.40-96.80L2152.40-96.80L2152.40-96.80Q2142.60-66 2142.60-44.60L2142.60-44.60L2142.60-44.60Q2142.60-23.20 2153.40-12L2153.40-12L2153.40-12Q2148.40-3 2141 0.50L2141 0.50L2141 0.50Q2133.60 4 2122.50 4L2122.50 4L2122.50 4Q2111.40 4 2104.50-2.10L2104.50-2.10L2104.50-2.10Q2097.60-8.20 2097.60-20.80L2097.60-20.80L2097.60-20.80Q2097.60-35.40 2105.60-59.40L2105.60-59.40L2105.60-59.40Q2113.60-83.20 2125.60-101.40L2125.60-101.40L2125.60-101.40Q2119.80-102 2113.80-102L2113.80-102L2113.80-102Q2101.40-102 2099.40-97.40ZM2272.40-30.80L2272.40-30.80L2272.40-30.80Q2276.20-26 2276.20-18.20L2276.20-18.20L2276.20-18.20Q2276.20-7.40 2268.20-1.70L2268.20-1.70L2268.20-1.70Q2260.20 4 2247.60 4L2247.60 4L2247.60 4Q2240.40 4 2229.40 2.40L2229.40 2.40L2229.40 2.40Q2207.80-1 2201.20-1L2201.20-1L2201.20-1Q2194.60-1 2192-0.70L2192-0.70L2192-0.70Q2189.40-0.40 2185.20 0L2185.20 0L2209.80-132L2296-132L2296-132Q2296-119.80 2290.10-113.40L2290.10-113.40L2290.10-113.40Q2284.20-107 2272.60-107L2272.60-107L2272.60-107Q2261-107 2249.20-112.40L2249.20-112.40L2243-77.40L2278.60-77.40L2278.60-77.40Q2278.60-66.80 2273.40-60.90L2273.40-60.90L2273.40-60.90Q2268.20-55 2259.50-55L2259.50-55L2259.50-55Q2250.80-55 2245.40-57L2245.40-57L2245.40-57Q2240-59 2239.40-59.60L2239.40-59.60L2232.20-21.80L2232.20-21.80Q2237-21.20 2246-21.20L2246-21.20L2246-21.20Q2261.40-21.20 2272.40-30.80ZM2399-41.40L2399-41.40L2399-41.40Q2404.20-37.60 2404.20-29.50L2404.20-29.50L2404.20-29.50Q2404.20-21.40 2400.70-15.70L2400.70-15.70L2400.70-15.70Q2397.20-10 2390.40-5.60L2390.40-5.60L2390.40-5.60Q2375.80 3.80 2350.30 3.80L2350.30 3.80L2350.30 3.80Q2324.80 3.80 2310.90-9.50L2310.90-9.50L2310.90-9.50Q2297-22.80 2297-46.40L2297-46.40L2297-46.40Q2297-79.80 2314.40-105.20L2314.40-105.20L2314.40-105.20Q2327.60-124 2351.20-132L2351.20-132L2351.20-132Q2363.40-136 2375.40-136L2375.40-136L2375.40-136Q2387.40-136 2394.80-134.40L2394.80-134.40L2394.80-134.40Q2402.20-132.80 2407.80-129.60L2407.80-129.60L2407.80-129.60Q2420-122.60 2420-111.40L2420-111.40L2420-111.40Q2420-101.20 2410.40-93.60L2410.40-93.60L2410.40-93.60Q2401.60-86.80 2394.40-86.80L2394.40-86.80L2394.40-86.80Q2387.20-86.80 2384.20-87.80L2384.20-87.80L2384.20-87.80Q2385-95 2385-99.70L2385-99.70L2385-99.70Q2385-104.40 2384.80-107.80L2384.80-107.80L2384.80-107.80Q2384.60-111.20 2383.60-114.40L2383.60-114.40L2383.60-114.40Q2381.60-121.80 2375.50-121.80L2375.50-121.80L2375.50-121.80Q2369.40-121.80 2363.30-116.10L2363.30-116.10L2363.30-116.10Q2357.20-110.40 2352-100.80L2352-100.80L2352-100.80Q2340.20-79 2340.20-53.20L2340.20-53.20L2340.20-53.20Q2340.20-40.80 2347.20-33.70L2347.20-33.70L2347.20-33.70Q2354.20-26.60 2369.20-26.60L2369.20-26.60L2369.20-26.60Q2380.40-26.60 2391-34L2391-34L2391-34Q2395.60-37.20 2399-41.40ZM2495.40-15L2495.40-15L2495.40-15Q2495.40-29 2501.00-57L2501.00-57L2471.40-57L2460.40 0L2418.60 0L2444.00-132L2486.20-132L2474.60-73L2504.20-73L2515.20-132L2557.40-132L2557.40-132Q2554.60-117.20 2551.00-100.60L2551.00-100.60L2544.20-68L2544.20-68Q2536.60-30 2536.60-13.40L2536.60-13.40L2536.60-13.40Q2536.60-6.60 2538.80-2.80L2538.80-2.80L2538.80-2.80Q2528.80 4 2517.10 4L2517.10 4L2517.10 4Q2505.40 4 2500.40-1.60L2500.40-1.60L2500.40-1.60Q2495.40-7.20 2495.40-15Z" fill="url(#editing-outline-gradient)"></path></g></g><style>text {
  font-size: 64px;
  font-family: Arial Black;
  dominant-baseline: central;
  text-anchor: middle;
}</style></svg>