<svg width="671.1687499999999px" height="336.8px" xmlns="http://www.w3.org/2000/svg" viewBox="-85.58437499999997 -93.4 671.1687499999999 336.8" style="background: rgba(0, 0, 0, 0);" preserveAspectRatio="xMidYMid"><defs><linearGradient id="editing-outline-gradient" x1="-0.41354545764260087" x2="1.4135454576426008" y1="0.09326335692419985" y2="0.9067366430758002"><stop offset="0" stop-color="#fa7060"></stop><stop offset="1" stop-color="#ee4208"></stop></linearGradient><filter id="editing-outline" x="-100%" y="-100%" width="300%" height="300%"><feMorphology in="SourceGraphic" operator="dilate" radius="1" result="outline"></feMorphology><feComposite operator="out" in="outline" in2="SourceAlpha"></feComposite></filter></defs><g filter="url(#editing-outline)"><g transform="translate(4.999996185302734, 145.1999969482422)"><path d="M19.40-97.40L19.40-97.40L19.40-97.40Q12.60-102.60 12.60-113.70L12.60-113.70L12.60-113.70Q12.60-124.80 19.90-130.60L19.90-130.60L19.90-130.60Q27.20-136.40 39.80-136.40L39.80-136.40L39.80-136.40Q47.80-136.40 66.80-133.60L66.80-133.60L80.40-131.60L80.40-131.60Q87.20-130.80 94.30-130.80L94.30-130.80L94.30-130.80Q101.40-130.80 106.20-133.80L106.20-133.80L106.20-133.80Q113.40-127.40 113.40-118.20L113.40-118.20L113.40-118.20Q113.40-109 105.20-102.40L105.20-102.40L105.20-102.40Q96.80-95.40 86-95.40L86-95.40L86-95.40Q80.80-95.40 72.40-96.80L72.40-96.80L72.40-96.80Q62.60-66 62.60-44.60L62.60-44.60L62.60-44.60Q62.60-23.20 73.40-12L73.40-12L73.40-12Q68.40-3 61 0.50L61 0.50L61 0.50Q53.60 4 42.50 4L42.50 4L42.50 4Q31.40 4 24.50-2.10L24.50-2.10L24.50-2.10Q17.60-8.20 17.60-20.80L17.60-20.80L17.60-20.80Q17.60-35.40 25.60-59.40L25.60-59.40L25.60-59.40Q33.60-83.20 45.60-101.40L45.60-101.40L45.60-101.40Q39.80-102 33.80-102L33.80-102L33.80-102Q21.40-102 19.40-97.40ZM192.40-30.80L192.40-30.80L192.40-30.80Q196.20-26 196.20-18.20L196.20-18.20L196.20-18.20Q196.20-7.40 188.20-1.70L188.20-1.70L188.20-1.70Q180.20 4 167.60 4L167.60 4L167.60 4Q160.40 4 149.40 2.40L149.40 2.40L149.40 2.40Q127.80-1 121.20-1L121.20-1L121.20-1Q114.60-1 112.00-0.70L112.00-0.70L112.00-0.70Q109.40-0.40 105.20 0L105.20 0L129.80-132L216-132L216-132Q216-119.80 210.10-113.40L210.10-113.40L210.10-113.40Q204.20-107 192.60-107L192.60-107L192.60-107Q181-107 169.20-112.40L169.20-112.40L163-77.40L198.60-77.40L198.60-77.40Q198.60-66.80 193.40-60.90L193.40-60.90L193.40-60.90Q188.20-55 179.50-55L179.50-55L179.50-55Q170.80-55 165.40-57L165.40-57L165.40-57Q160-59 159.40-59.60L159.40-59.60L152.20-21.80L152.20-21.80Q157-21.20 166-21.20L166-21.20L166-21.20Q181.40-21.20 192.40-30.80ZM319-41.40L319-41.40L319-41.40Q324.20-37.60 324.20-29.50L324.20-29.50L324.20-29.50Q324.20-21.40 320.70-15.70L320.70-15.70L320.70-15.70Q317.20-10 310.40-5.60L310.40-5.60L310.40-5.60Q295.80 3.80 270.30 3.80L270.30 3.80L270.30 3.80Q244.80 3.80 230.90-9.50L230.90-9.50L230.90-9.50Q217.00-22.80 217.00-46.40L217.00-46.40L217.00-46.40Q217.00-79.80 234.40-105.20L234.40-105.20L234.40-105.20Q247.60-124 271.20-132L271.20-132L271.20-132Q283.40-136 295.40-136L295.40-136L295.40-136Q307.40-136 314.80-134.40L314.80-134.40L314.80-134.40Q322.20-132.80 327.80-129.60L327.80-129.60L327.80-129.60Q340-122.60 340-111.40L340-111.40L340-111.40Q340-101.20 330.40-93.60L330.40-93.60L330.40-93.60Q321.60-86.80 314.40-86.80L314.40-86.80L314.40-86.80Q307.20-86.80 304.20-87.80L304.20-87.80L304.20-87.80Q305-95 305-99.70L305-99.70L305-99.70Q305-104.40 304.80-107.80L304.80-107.80L304.80-107.80Q304.60-111.20 303.60-114.40L303.60-114.40L303.60-114.40Q301.60-121.80 295.50-121.80L295.50-121.80L295.50-121.80Q289.40-121.80 283.30-116.10L283.30-116.10L283.30-116.10Q277.20-110.40 272-100.80L272-100.80L272-100.80Q260.20-79 260.20-53.20L260.20-53.20L260.20-53.20Q260.20-40.80 267.20-33.70L267.20-33.70L267.20-33.70Q274.20-26.60 289.20-26.60L289.20-26.60L289.20-26.60Q300.40-26.60 311-34L311-34L311-34Q315.60-37.20 319-41.40ZM415.40-15L415.40-15L415.40-15Q415.40-29 421.00-57L421.00-57L391.40-57L380.40 0L338.60 0L364.00-132L406.20-132L394.60-73L424.20-73L435.20-132L477.40-132L477.40-132Q474.60-117.20 471-100.60L471-100.60L464.20-68L464.20-68Q456.60-30 456.60-13.40L456.60-13.40L456.60-13.40Q456.60-6.60 458.80-2.80L458.80-2.80L458.80-2.80Q448.80 4 437.10 4L437.10 4L437.10 4Q425.40 4 420.40-1.60L420.40-1.60L420.40-1.60Q415.40-7.20 415.40-15Z" fill="url(#editing-outline-gradient)"></path></g></g><style>text {
  font-size: 64px;
  font-family: Arial Black;
  dominant-baseline: central;
  text-anchor: middle;
}</style></svg>